# Tiled2Unity generated file. Do not modify by hand.
# Wavefront file for '1_1_switch1_mesh_0003.obj'

# Vertices (Count = 8)
v -6 -2 0
v -7 -2 0
v -7 -1 0
v -6 -1 0
v -2 -7 0
v -3 -7 0
v -3 -6 0
v -2 -6 0

# Texture cooridinates (Count = 8)
vt 0.3913043 0.6666666
vt 0.4347826 0.6666666
vt 0.4347826 0.7083334
vt 0.3913043 0.7083334
vt 0.5652174 0.75
vt 0.6086956 0.75
vt 0.6086956 0.7916667
vt 0.5652174 0.7916667

# Normal
vn 0 0 -1

# Mesh description
g 1_1_switch1_mesh_0003

# Faces
f 1/1/1 2/2/1 3/3/1 4/4/1
f 5/5/1 6/6/1 7/7/1 8/8/1

