# Tiled2Unity generated file. Do not modify by hand.
# Wavefront file for '1_1_enemySwitch1_mesh_0002.obj'

# Vertices (Count = 20)
v -4 -4 0
v -5 -4 0
v -5 -3 0
v -4 -3 0
v -3 -5 0
v -4 -5 0
v -4 -4 0
v -3 -4 0
v -4 -5 0
v -5 -5 0
v -5 -4 0
v -4 -4 0
v -5 -5 0
v -6 -5 0
v -6 -4 0
v -5 -4 0
v -4 -6 0
v -5 -6 0
v -5 -5 0
v -4 -5 0

# Texture cooridinates (Count = 8)
vt 0.5652174 0.75
vt 0.6086956 0.75
vt 0.6086956 0.7916667
vt 0.5652174 0.7916667
vt 0.5217391 0.625
vt 0.5652174 0.625
vt 0.5652174 0.6666666
vt 0.5217391 0.6666666

# Normal
vn 0 0 -1

# Mesh description
g 1_1_enemySwitch1_mesh_0002

# Faces
f 1/1/1 2/2/1 3/3/1 4/4/1
f 5/1/1 6/2/1 7/3/1 8/4/1
f 9/5/1 10/6/1 11/7/1 12/8/1
f 13/1/1 14/2/1 15/3/1 16/4/1
f 17/1/1 18/2/1 19/3/1 20/4/1

