# Tiled2Unity generated file. Do not modify by hand.
# Wavefront file for 'testEnd1_mesh_0003.obj'

# Vertices (Count = 16)
v -6 -1 0
v -7 -1 0
v -7 0 0
v -6 0 0
v -8 -1 0
v -9 -1 0
v -9 0 0
v -8 0 0
v -6 -2 0
v -7 -2 0
v -7 -1 0
v -6 -1 0
v -8 -2 0
v -9 -2 0
v -9 -1 0
v -8 -1 0

# Texture cooridinates (Count = 6)
vt 0.5217391 0.625
vt 0.5652174 0.625
vt 0.5652174 0.6666666
vt 0.5217391 0.6666666
vt 0.5217391 0.5833334
vt 0.5652174 0.5833334

# Normal
vn 0 0 -1

# Mesh description
g testEnd1_mesh_0003

# Faces
f 1/1/1 2/2/1 3/3/1 4/4/1
f 5/1/1 6/2/1 7/3/1 8/4/1
f 9/5/1 10/6/1 11/2/1 12/1/1
f 13/5/1 14/6/1 15/2/1 16/1/1

