# Tiled2Unity generated file. Do not modify by hand.
# Wavefront file for 'lootRunTestMap_mesh_0001.obj'

# Vertices (Count = 136)
v -4 -1 0
v -5 -1 0
v -5 0 0
v -4 0 0
v -5 -1 0
v -6 -1 0
v -6 0 0
v -5 0 0
v -4 -2 0
v -5 -2 0
v -5 -1 0
v -4 -1 0
v -5 -2 0
v -6 -2 0
v -6 -1 0
v -5 -1 0
v -3 -3 0
v -4 -3 0
v -4 -2 0
v -3 -2 0
v -4 -3 0
v -5 -3 0
v -5 -2 0
v -4 -2 0
v -5 -3 0
v -6 -3 0
v -6 -2 0
v -5 -2 0
v -6 -3 0
v -7 -3 0
v -7 -2 0
v -6 -2 0
v -1 -4 0
v -2 -4 0
v -2 -3 0
v -1 -3 0
v -2 -4 0
v -3 -4 0
v -3 -3 0
v -2 -3 0
v -3 -4 0
v -4 -4 0
v -4 -3 0
v -3 -3 0
v -6 -4 0
v -7 -4 0
v -7 -3 0
v -6 -3 0
v -7 -4 0
v -8 -4 0
v -8 -3 0
v -7 -3 0
v -1 -5 0
v -2 -5 0
v -2 -4 0
v -1 -4 0
v -2 -5 0
v -3 -5 0
v -3 -4 0
v -2 -4 0
v -3 -5 0
v -4 -5 0
v -4 -4 0
v -3 -4 0
v -6 -5 0
v -7 -5 0
v -7 -4 0
v -6 -4 0
v -7 -5 0
v -8 -5 0
v -8 -4 0
v -7 -4 0
v -1 -6 0
v -2 -6 0
v -2 -5 0
v -1 -5 0
v -2 -6 0
v -3 -6 0
v -3 -5 0
v -2 -5 0
v -5 -6 0
v -6 -6 0
v -6 -5 0
v -5 -5 0
v -6 -6 0
v -7 -6 0
v -7 -5 0
v -6 -5 0
v -7 -6 0
v -8 -6 0
v -8 -5 0
v -7 -5 0
v -1 -7 0
v -2 -7 0
v -2 -6 0
v -1 -6 0
v -4 -7 0
v -5 -7 0
v -5 -6 0
v -4 -6 0
v -5 -7 0
v -6 -7 0
v -6 -6 0
v -5 -6 0
v -6 -7 0
v -7 -7 0
v -7 -6 0
v -6 -6 0
v -1 -8 0
v -2 -8 0
v -2 -7 0
v -1 -7 0
v -2 -8 0
v -3 -8 0
v -3 -7 0
v -2 -7 0
v -3 -8 0
v -4 -8 0
v -4 -7 0
v -3 -7 0
v -4 -8 0
v -5 -8 0
v -5 -7 0
v -4 -7 0
v -5 -8 0
v -6 -8 0
v -6 -7 0
v -5 -7 0
v -3 -9 0
v -4 -9 0
v -4 -8 0
v -3 -8 0
v -3 -10 0
v -4 -10 0
v -4 -9 0
v -3 -9 0

# Texture cooridinates (Count = 14)
vt 0.7391304 0.5833333
vt 0.7826087 0.5833333
vt 0.7826087 0.625
vt 0.7391304 0.625
vt 0.2173913 0.8333333
vt 0.2608696 0.8333333
vt 0.2608696 0.875
vt 0.2173913 0.875
vt 0.2173913 0.75
vt 0.2608696 0.75
vt 0.2608696 0.7916667
vt 0.2173913 0.7916667
vt 0.6956522 0.5833333
vt 0.6956522 0.625

# Normal
vn 0 0 -1

# Mesh description
g lootRunTestMap_mesh_0001

# Faces
f 1/1/1 2/2/1 3/3/1 4/4/1
f 5/5/1 6/6/1 7/7/1 8/8/1
f 9/9/1 10/10/1 11/11/1 12/12/1
f 13/9/1 14/10/1 15/11/1 16/12/1
f 17/9/1 18/10/1 19/11/1 20/12/1
f 21/9/1 22/10/1 23/11/1 24/12/1
f 25/9/1 26/10/1 27/11/1 28/12/1
f 29/9/1 30/10/1 31/11/1 32/12/1
f 33/9/1 34/10/1 35/11/1 36/12/1
f 37/5/1 38/6/1 39/7/1 40/8/1
f 41/9/1 42/10/1 43/11/1 44/12/1
f 45/9/1 46/10/1 47/11/1 48/12/1
f 49/5/1 50/6/1 51/7/1 52/8/1
f 53/9/1 54/10/1 55/11/1 56/12/1
f 57/9/1 58/10/1 59/11/1 60/12/1
f 61/9/1 62/10/1 63/11/1 64/12/1
f 65/9/1 66/10/1 67/11/1 68/12/1
f 69/9/1 70/10/1 71/11/1 72/12/1
f 73/9/1 74/10/1 75/11/1 76/12/1
f 77/9/1 78/10/1 79/11/1 80/12/1
f 81/9/1 82/10/1 83/11/1 84/12/1
f 85/9/1 86/10/1 87/11/1 88/12/1
f 89/9/1 90/10/1 91/11/1 92/12/1
f 93/9/1 94/10/1 95/11/1 96/12/1
f 97/9/1 98/10/1 99/11/1 100/12/1
f 101/9/1 102/10/1 103/11/1 104/12/1
f 105/9/1 106/10/1 107/11/1 108/12/1
f 109/9/1 110/10/1 111/11/1 112/12/1
f 113/9/1 114/10/1 115/11/1 116/12/1
f 117/9/1 118/10/1 119/11/1 120/12/1
f 121/9/1 122/10/1 123/11/1 124/12/1
f 125/9/1 126/10/1 127/11/1 128/12/1
f 129/5/1 130/6/1 131/7/1 132/8/1
f 133/13/1 134/1/1 135/4/1 136/14/1

