# Tiled2Unity generated file. Do not modify by hand.
# Wavefront file for '1_1_multiplePaths1_mesh_0003.obj'

# Vertices (Count = 8)
v -6 -4 0
v -7 -4 0
v -7 -3 0
v -6 -3 0
v -9 -4 0
v -10 -4 0
v -10 -3 0
v -9 -3 0

# Texture cooridinates (Count = 6)
vt 0.3913043 0.6666666
vt 0.4347826 0.6666666
vt 0.4347826 0.7083334
vt 0.3913043 0.7083334
vt 0.4782609 0.6666666
vt 0.4782609 0.7083334

# Normal
vn 0 0 -1

# Mesh description
g 1_1_multiplePaths1_mesh_0003

# Faces
f 1/1/1 2/2/1 3/3/1 4/4/1
f 5/2/1 6/5/1 7/6/1 8/3/1

