# Tiled2Unity generated file. Do not modify by hand.
# Wavefront file for '1_1_enemyHard_mesh_0005.obj'

# Vertices (Count = 8)
v -1 -3 0
v -2 -3 0
v -2 -2 0
v -1 -2 0
v 0 -10 0
v -1 -10 0
v -1 -9 0
v 0 -9 0

# Texture cooridinates (Count = 6)
vt 0.4347826 0.6666666
vt 0.4782609 0.6666666
vt 0.4782609 0.7083334
vt 0.4347826 0.7083334
vt 0.3913043 0.6666666
vt 0.3913043 0.7083334

# Normal
vn 0 0 -1

# Mesh description
g 1_1_enemyHard_mesh_0005

# Faces
f 1/1/1 2/2/1 3/3/1 4/4/1
f 5/5/1 6/1/1 7/4/1 8/6/1

