# Tiled2Unity generated file. Do not modify by hand.
# Wavefront file for '1_1_fire3_mesh_0003.obj'

# Vertices (Count = 16)
v -1 -2 0
v -2 -2 0
v -2 -1 0
v -1 -1 0
v -15 -2 0
v -16 -2 0
v -16 -1 0
v -15 -1 0
v -1 -20 0
v -2 -20 0
v -2 -19 0
v -1 -19 0
v -15 -20 0
v -16 -20 0
v -16 -19 0
v -15 -19 0

# Texture cooridinates (Count = 4)
vt 0.3913043 0.6666666
vt 0.4347826 0.6666666
vt 0.4347826 0.7083334
vt 0.3913043 0.7083334

# Normal
vn 0 0 -1

# Mesh description
g 1_1_fire3_mesh_0003

# Faces
f 1/1/1 2/2/1 3/3/1 4/4/1
f 5/1/1 6/2/1 7/3/1 8/4/1
f 9/1/1 10/2/1 11/3/1 12/4/1
f 13/1/1 14/2/1 15/3/1 16/4/1

